<svg width="48" height="48" viewBox="0 0 48 48" fill="none" xmlns="http://www.w3.org/2000/svg">
<rect width="48" height="48" fill="white"/>
<path d="M32.5 40.5C32.5 41.0436 32.2566 41.6769 31.5813 42.3813C30.8988 43.0931 29.8397 43.8025 28.4154 44.4309C25.5708 45.6859 21.5361 46.5 17 46.5C12.4639 46.5 8.42918 45.6859 5.58465 44.4309C4.16033 43.8025 3.10118 43.0931 2.41872 42.3813C1.74344 41.6769 1.5 41.0436 1.5 40.5C1.5 39.9564 1.74344 39.3231 2.41872 38.6187C3.10118 37.9069 4.16033 37.1975 5.58465 36.5691C8.42918 35.3141 12.4639 34.5 17 34.5C21.5361 34.5 25.5708 35.3141 28.4154 36.5691C29.8397 37.1975 30.8988 37.9069 31.5813 38.6187C32.2566 39.3231 32.5 39.9564 32.5 40.5Z" stroke="#152C5B" stroke-width="3"/>
<path d="M30.5 13.7143C30.5 16.6859 29.0028 23.8096 26.5015 30.2394C25.2577 33.4369 23.8075 36.3501 22.2481 38.4357C20.6343 40.594 19.1833 41.5 18 41.5C16.8167 41.5 15.3657 40.594 13.7519 38.4357C12.1925 36.3501 10.7423 33.4369 9.49846 30.2394C6.99722 23.8096 5.5 16.6859 5.5 13.7143C5.5 8.31241 10.8349 3.5 18 3.5C25.1651 3.5 30.5 8.31241 30.5 13.7143Z" fill="white" stroke="#152C5B" stroke-width="3"/>
<circle cx="18" cy="18" r="4.5" stroke="#FF498B" stroke-width="3"/>
</svg>
