<svg width="48" height="48" viewBox="0 0 48 48" fill="none" xmlns="http://www.w3.org/2000/svg">
<rect width="48" height="48" fill="white"/>
<rect width="48" height="48" fill="white"/>
<mask id="path-2-inside-1" fill="white">
<path fill-rule="evenodd" clip-rule="evenodd" d="M16.9438 9C16.0818 9 15.3168 9.55222 15.0455 10.3703L13.9444 13.6897H8C3.58172 13.6897 0 17.2714 0 21.6896V35C0 39.4183 3.58172 43 8 43H40C44.4183 43 48 39.4183 48 35V21.6897C48 17.2714 44.4183 13.6897 40 13.6897H34.7778L33.4894 10.2911C33.1948 9.51395 32.4504 9 31.6193 9H16.9438Z"/>
</mask>
<path d="M15.0455 10.3703L17.8929 11.3148V11.3148L15.0455 10.3703ZM13.9444 13.6897V16.6897H16.1101L16.7919 14.6342L13.9444 13.6897ZM34.7778 13.6897L31.9726 14.7531L32.7067 16.6897H34.7778V13.6897ZM33.4894 10.2911L30.6842 11.3545V11.3545L33.4894 10.2911ZM17.8929 11.3148C17.7572 11.7239 17.3747 12 16.9438 12V6C14.7889 6 12.8764 7.38056 12.198 9.42584L17.8929 11.3148ZM16.7919 14.6342L17.8929 11.3148L12.198 9.42584L11.097 12.7452L16.7919 14.6342ZM8 16.6897H13.9444V10.6897H8V16.6897ZM3 21.6896C3 18.9282 5.23857 16.6897 8 16.6897V10.6897C1.92487 10.6897 -3 15.6145 -3 21.6896H3ZM3 35V21.6896H-3V35H3ZM8 40C5.23858 40 3 37.7614 3 35H-3C-3 41.0751 1.92487 46 8 46V40ZM40 40H8V46H40V40ZM45 35C45 37.7614 42.7614 40 40 40V46C46.0751 46 51 41.0751 51 35H45ZM45 21.6897V35H51V21.6897H45ZM40 16.6897C42.7614 16.6897 45 18.9282 45 21.6897H51C51 15.6145 46.0751 10.6897 40 10.6897V16.6897ZM34.7778 16.6897H40V10.6897H34.7778V16.6897ZM30.6842 11.3545L31.9726 14.7531L37.583 12.6262L36.2946 9.22765L30.6842 11.3545ZM31.6193 12C31.2038 12 30.8315 11.743 30.6842 11.3545L36.2946 9.22765C35.5581 7.28488 33.697 6 31.6193 6V12ZM16.9438 12H31.6193V6H16.9438V12Z" fill="#152C5B" mask="url(#path-2-inside-1)"/>
<circle cx="24" cy="28" r="6.5" stroke="#FF498B" stroke-width="3"/>
<path d="M41 20H35" stroke="#152C5B" stroke-width="3" stroke-linecap="round"/>
</svg>
