<svg width="30" height="29" viewBox="0 0 30 29" fill="none" xmlns="http://www.w3.org/2000/svg">
<path d="M14.0489 1.67693C14.3483 0.755616 15.6517 0.755618 15.9511 1.67693L18.6484 9.97835C18.7822 10.3904 19.1662 10.6693 19.5994 10.6693H28.328C29.2968 10.6693 29.6995 11.9089 28.9158 12.4784L21.8542 17.6089C21.5037 17.8636 21.3571 18.3149 21.4909 18.7269L24.1882 27.0284C24.4876 27.9497 23.4331 28.7158 22.6494 28.1464L15.5878 23.0158C15.2373 22.7612 14.7627 22.7612 14.4122 23.0158L7.3506 28.1464C6.56689 28.7158 5.51241 27.9497 5.81176 27.0284L8.50906 18.7269C8.64293 18.3149 8.49627 17.8636 8.14579 17.6089L1.08417 12.4784C0.300457 11.9089 0.703234 10.6693 1.67196 10.6693H10.4006C10.8338 10.6693 11.2178 10.3904 11.3516 9.97835L14.0489 1.67693Z" fill="#FFCC47"/>
</svg>
